<mxfile host="Electron" modified="2023-04-29T10:53:15.917Z" agent="Mozilla/5.0 (Windows NT 10.0; Win64; x64) AppleWebKit/537.36 (KHTML, like Gecko) draw.io/21.1.2 Chrome/106.0.5249.199 Electron/21.4.3 Safari/537.36" etag="gLRGR0UihmP9BAnzcuC5" version="21.1.2" type="device">
  <diagram name="ページ1" id="PfpE3tNuS8KW1DZLqHgc">
    <mxGraphModel dx="2093" dy="1032" grid="1" gridSize="10" guides="1" tooltips="1" connect="1" arrows="1" fold="1" page="1" pageScale="1" pageWidth="3300" pageHeight="4681" math="0" shadow="0">
      <root>
        <mxCell id="0" />
        <mxCell id="1" parent="0" />
        <mxCell id="5uWyLS2bk3VKtky47Vt--5" value="paltforms" style="sketch=0;points=[[0,0,0],[0.25,0,0],[0.5,0,0],[0.75,0,0],[1,0,0],[1,0.25,0],[1,0.5,0],[1,0.75,0],[1,1,0],[0.75,1,0],[0.5,1,0],[0.25,1,0],[0,1,0],[0,0.75,0],[0,0.5,0],[0,0.25,0]];rounded=1;absoluteArcSize=1;arcSize=2;html=1;strokeColor=none;gradientColor=none;shadow=0;dashed=0;fontSize=12;fontColor=#9E9E9E;align=left;verticalAlign=top;spacing=10;spacingTop=-4;whiteSpace=wrap;fillColor=#E0F2F1;" vertex="1" parent="1">
          <mxGeometry x="80" y="290" width="740" height="240" as="geometry" />
        </mxCell>
        <mxCell id="5uWyLS2bk3VKtky47Vt--6" value="modules" style="sketch=0;points=[[0,0,0],[0.25,0,0],[0.5,0,0],[0.75,0,0],[1,0,0],[1,0.25,0],[1,0.5,0],[1,0.75,0],[1,1,0],[0.75,1,0],[0.5,1,0],[0.25,1,0],[0,1,0],[0,0.75,0],[0,0.5,0],[0,0.25,0]];rounded=1;absoluteArcSize=1;arcSize=2;html=1;strokeColor=none;gradientColor=none;shadow=0;dashed=0;fontSize=12;fontColor=#9E9E9E;align=left;verticalAlign=top;spacing=10;spacingTop=-4;whiteSpace=wrap;fillColor=#F3E5F5;" vertex="1" parent="1">
          <mxGeometry x="80" y="80" width="740" height="190" as="geometry" />
        </mxCell>
        <mxCell id="5uWyLS2bk3VKtky47Vt--7" value="Serializable&#xa;Material" style="swimlane;fontStyle=1;align=center;verticalAlign=top;childLayout=stackLayout;horizontal=1;startSize=40;horizontalStack=0;resizeParent=1;resizeParentMax=0;resizeLast=0;collapsible=1;marginBottom=0;fillColor=#f5f5f5;fontColor=#333333;strokeColor=#666666;shadow=1;swimlaneFillColor=default;" vertex="1" parent="1">
          <mxGeometry x="470" y="123" width="220" height="76" as="geometry" />
        </mxCell>
        <mxCell id="5uWyLS2bk3VKtky47Vt--34" value="" style="text;strokeColor=none;fillColor=none;align=left;verticalAlign=middle;spacingTop=-1;spacingLeft=4;spacingRight=4;rotatable=0;labelPosition=right;points=[];portConstraint=eastwest;" vertex="1" parent="5uWyLS2bk3VKtky47Vt--7">
          <mxGeometry y="40" width="220" height="14" as="geometry" />
        </mxCell>
        <mxCell id="5uWyLS2bk3VKtky47Vt--9" value="" style="line;strokeWidth=1;fillColor=none;align=left;verticalAlign=middle;spacingTop=-1;spacingLeft=3;spacingRight=3;rotatable=0;labelPosition=right;points=[];portConstraint=eastwest;strokeColor=inherit;" vertex="1" parent="5uWyLS2bk3VKtky47Vt--7">
          <mxGeometry y="54" width="220" height="8" as="geometry" />
        </mxCell>
        <mxCell id="5uWyLS2bk3VKtky47Vt--35" value="" style="text;strokeColor=none;fillColor=none;align=left;verticalAlign=middle;spacingTop=-1;spacingLeft=4;spacingRight=4;rotatable=0;labelPosition=right;points=[];portConstraint=eastwest;" vertex="1" parent="5uWyLS2bk3VKtky47Vt--7">
          <mxGeometry y="62" width="220" height="14" as="geometry" />
        </mxCell>
        <mxCell id="5uWyLS2bk3VKtky47Vt--1" value="Material" style="swimlane;fontStyle=1;align=center;verticalAlign=top;childLayout=stackLayout;horizontal=1;startSize=26;horizontalStack=0;resizeParent=1;resizeParentMax=0;resizeLast=0;collapsible=1;marginBottom=0;fillColor=#f5f5f5;fontColor=#333333;strokeColor=#666666;shadow=1;swimlaneFillColor=default;" vertex="1" parent="1">
          <mxGeometry x="180" y="130" width="160" height="62" as="geometry" />
        </mxCell>
        <mxCell id="5uWyLS2bk3VKtky47Vt--28" value="" style="text;strokeColor=none;fillColor=none;align=left;verticalAlign=middle;spacingTop=-1;spacingLeft=4;spacingRight=4;rotatable=0;labelPosition=right;points=[];portConstraint=eastwest;" vertex="1" parent="5uWyLS2bk3VKtky47Vt--1">
          <mxGeometry y="26" width="160" height="14" as="geometry" />
        </mxCell>
        <mxCell id="5uWyLS2bk3VKtky47Vt--3" value="" style="line;strokeWidth=1;fillColor=none;align=left;verticalAlign=middle;spacingTop=-1;spacingLeft=3;spacingRight=3;rotatable=0;labelPosition=right;points=[];portConstraint=eastwest;strokeColor=inherit;" vertex="1" parent="5uWyLS2bk3VKtky47Vt--1">
          <mxGeometry y="40" width="160" height="8" as="geometry" />
        </mxCell>
        <mxCell id="5uWyLS2bk3VKtky47Vt--33" value="" style="text;strokeColor=none;fillColor=none;align=left;verticalAlign=middle;spacingTop=-1;spacingLeft=4;spacingRight=4;rotatable=0;labelPosition=right;points=[];portConstraint=eastwest;" vertex="1" parent="5uWyLS2bk3VKtky47Vt--1">
          <mxGeometry y="48" width="160" height="14" as="geometry" />
        </mxCell>
        <mxCell id="5uWyLS2bk3VKtky47Vt--12" value="Backend&#xa;Material" style="swimlane;fontStyle=1;align=center;verticalAlign=top;childLayout=stackLayout;horizontal=1;startSize=38;horizontalStack=0;resizeParent=1;resizeParentMax=0;resizeLast=0;collapsible=1;marginBottom=0;fillColor=#f5f5f5;fontColor=#333333;strokeColor=#666666;shadow=1;swimlaneFillColor=default;" vertex="1" parent="1">
          <mxGeometry x="180" y="320" width="160" height="74" as="geometry" />
        </mxCell>
        <mxCell id="5uWyLS2bk3VKtky47Vt--36" value="" style="text;strokeColor=none;fillColor=none;align=left;verticalAlign=middle;spacingTop=-1;spacingLeft=4;spacingRight=4;rotatable=0;labelPosition=right;points=[];portConstraint=eastwest;" vertex="1" parent="5uWyLS2bk3VKtky47Vt--12">
          <mxGeometry y="38" width="160" height="14" as="geometry" />
        </mxCell>
        <mxCell id="5uWyLS2bk3VKtky47Vt--14" value="" style="line;strokeWidth=1;fillColor=none;align=left;verticalAlign=middle;spacingTop=-1;spacingLeft=3;spacingRight=3;rotatable=0;labelPosition=right;points=[];portConstraint=eastwest;strokeColor=inherit;" vertex="1" parent="5uWyLS2bk3VKtky47Vt--12">
          <mxGeometry y="52" width="160" height="8" as="geometry" />
        </mxCell>
        <mxCell id="5uWyLS2bk3VKtky47Vt--38" value="" style="text;strokeColor=none;fillColor=none;align=left;verticalAlign=middle;spacingTop=-1;spacingLeft=4;spacingRight=4;rotatable=0;labelPosition=right;points=[];portConstraint=eastwest;" vertex="1" parent="5uWyLS2bk3VKtky47Vt--12">
          <mxGeometry y="60" width="160" height="14" as="geometry" />
        </mxCell>
        <mxCell id="5uWyLS2bk3VKtky47Vt--23" value="" style="endArrow=block;endSize=16;endFill=0;html=1;rounded=0;" edge="1" parent="1" source="5uWyLS2bk3VKtky47Vt--12" target="5uWyLS2bk3VKtky47Vt--1">
          <mxGeometry width="160" relative="1" as="geometry">
            <mxPoint x="390" y="560" as="sourcePoint" />
            <mxPoint x="550" y="560" as="targetPoint" />
          </mxGeometry>
        </mxCell>
        <mxCell id="5uWyLS2bk3VKtky47Vt--24" value="created from/&lt;br&gt;apply to" style="endArrow=open;endSize=12;dashed=1;html=1;rounded=0;" edge="1" parent="1" source="5uWyLS2bk3VKtky47Vt--7" target="5uWyLS2bk3VKtky47Vt--1">
          <mxGeometry width="160" relative="1" as="geometry">
            <mxPoint x="390" y="560" as="sourcePoint" />
            <mxPoint x="550" y="560" as="targetPoint" />
          </mxGeometry>
        </mxCell>
        <mxCell id="5uWyLS2bk3VKtky47Vt--26" value="Platform Code" style="html=1;fillColor=#dae8fc;strokeColor=#6c8ebf;fontStyle=1;shadow=1;" vertex="1" parent="1">
          <mxGeometry x="180" y="450" width="525" height="50" as="geometry" />
        </mxCell>
        <mxCell id="5uWyLS2bk3VKtky47Vt--27" value="create" style="endArrow=open;endSize=12;dashed=1;html=1;rounded=0;edgeStyle=orthogonalEdgeStyle;" edge="1" parent="1" source="5uWyLS2bk3VKtky47Vt--26" target="5uWyLS2bk3VKtky47Vt--12">
          <mxGeometry width="160" relative="1" as="geometry">
            <mxPoint x="390" y="520" as="sourcePoint" />
            <mxPoint x="550" y="520" as="targetPoint" />
            <Array as="points">
              <mxPoint x="260" y="430" />
              <mxPoint x="260" y="430" />
            </Array>
          </mxGeometry>
        </mxCell>
      </root>
    </mxGraphModel>
  </diagram>
</mxfile>
